<?xml version="1.0" encoding="UTF-8" standalone="no"?>
<svg
   xmlns:dc="http://purl.org/dc/elements/1.1/"
   xmlns:cc="http://creativecommons.org/ns#"
   xmlns:rdf="http://www.w3.org/1999/02/22-rdf-syntax-ns#"
   xmlns:svg="http://www.w3.org/2000/svg"
   xmlns="http://www.w3.org/2000/svg"
   xmlns:sodipodi="http://sodipodi.sourceforge.net/DTD/sodipodi-0.dtd"
   xmlns:inkscape="http://www.inkscape.org/namespaces/inkscape"
   inkscape:export-ydpi="96"
   inkscape:export-xdpi="96"
   inkscape:export-filename="C:\Users\anany\Documents\Grad School\git\Pyncmaster\docs\images\jane_logo.png"
   sodipodi:docname="jane_logo.svg"
   inkscape:version="1.0 (4035a4fb49, 2020-05-01)"
   id="svg313"
   version="1.1"
   viewBox="0 0 210 297"
   height="297mm"
   width="210mm">
  <defs
     id="defs307">
    <marker
       inkscape:stockid="Arrow2Send"
       orient="auto"
       refY="0"
       refX="0"
       id="marker1784"
       style="overflow:visible"
       inkscape:isstock="true">
      <path
         id="path1782"
         style="fill:#000000;fill-opacity:1;fill-rule:evenodd;stroke:#000000;stroke-width:0.625;stroke-linejoin:round;stroke-opacity:1"
         d="M 8.7185878,4.0337352 -2.2072895,0.01601326 8.7185884,-4.0017078 c -1.7454984,2.3720609 -1.7354408,5.6174519 -6e-7,8.035443 z"
         transform="matrix(-0.3,0,0,-0.3,0.69,0)" />
    </marker>
  </defs>
  <sodipodi:namedview
     inkscape:window-maximized="0"
     inkscape:window-y="0"
     inkscape:window-x="38"
     inkscape:window-height="1020"
     inkscape:window-width="1624"
     showgrid="false"
     inkscape:document-rotation="0"
     inkscape:current-layer="layer1"
     inkscape:document-units="mm"
     inkscape:cy="279.21112"
     inkscape:cx="274.8147"
     inkscape:zoom="1.979899"
     inkscape:pageshadow="2"
     inkscape:pageopacity="0.0"
     borderopacity="1.0"
     bordercolor="#666666"
     pagecolor="#ffffff"
     id="base" />
  <metadata
     id="metadata310">
    <rdf:RDF>
      <cc:Work
         rdf:about="">
        <dc:format>image/svg+xml</dc:format>
        <dc:type
           rdf:resource="http://purl.org/dc/dcmitype/StillImage" />
        <dc:title></dc:title>
      </cc:Work>
    </rdf:RDF>
  </metadata>
  <g
     id="layer1"
     inkscape:groupmode="layer"
     inkscape:label="Layer 1">
    <text
       id="text84"
       y="75.467049"
       x="45.319626"
       style="font-style:normal;font-weight:normal;font-size:10.5833px;line-height:1.25;font-family:sans-serif;fill:#000000;fill-opacity:1;stroke:none;stroke-width:0.264583"
       xml:space="preserve"><tspan
         style="font-style:normal;font-variant:normal;font-weight:normal;font-stretch:normal;font-family:'Bookman Old Style';-inkscape-font-specification:'Bookman Old Style';stroke-width:0.264583"
         y="75.467049"
         x="45.319626"
         id="tspan82"
         sodipodi:role="line"><tspan
   id="tspan86"
   style="font-size:14.1111px;stroke-width:0.264583">j</tspan>ane</tspan></text>
    <g
       transform="translate(-45.552018,-81.954704)"
       style="font-style:normal;font-weight:normal;font-size:4.93889px;line-height:1.25;font-family:sans-serif;fill:#000000;fill-opacity:1;stroke:none;stroke-width:0.264583"
       id="text96"
       aria-label="qi">
      <path
         id="path1990"
         style="font-style:normal;font-variant:normal;font-weight:normal;font-stretch:normal;font-size:4.93889px;font-family:'Bookman Old Style';-inkscape-font-specification:'Bookman Old Style';stroke-width:0.264583"
         d="m 96.688778,148.01193 h 0.262861 v 2.84565 q 0,0.17846 0.0217,0.2291 0.03135,0.0675 0.08923,0.0965 0.05788,0.0289 0.209806,0.0289 h 0.106109 v 0.20258 h -1.24678 v -0.20258 h 0.106109 q 0.139871,0 0.192925,-0.0265 0.05306,-0.0265 0.07958,-0.082 0.02894,-0.053 0.02894,-0.19292 v -0.85852 q -0.101286,0.0965 -0.255627,0.17846 -0.15434,0.082 -0.320738,0.13022 -0.125401,0.0362 -0.267684,0.0362 -0.282153,0 -0.520898,-0.1471 -0.236334,-0.14711 -0.381028,-0.42926 -0.142283,-0.28457 -0.142283,-0.63183 0,-0.48714 0.286977,-0.83923 0.32315,-0.39549 0.841637,-0.39549 0.224276,0 0.40032,0.0772 0.178456,0.0747 0.407555,0.28938 z m -0.149517,1.80386 v -0.90675 q 0,-0.25081 -0.06994,-0.37621 -0.06752,-0.12781 -0.238745,-0.21945 -0.16881,-0.094 -0.352089,-0.094 -0.204983,0 -0.383439,0.11575 -0.176044,0.11335 -0.279742,0.33039 -0.101286,0.21704 -0.101286,0.51607 0,0.42444 0.209807,0.68248 0.209806,0.25804 0.491959,0.25804 0.151929,0 0.325562,-0.0675 0.176044,-0.0699 0.397909,-0.23874 z" />
      <path
         id="path1992"
         style="font-style:normal;font-variant:normal;font-weight:normal;font-stretch:normal;font-size:4.93889px;font-family:'Bookman Old Style';-inkscape-font-specification:'Bookman Old Style';stroke-width:0.264583"
         d="m 98.118837,146.86644 q 0.115756,0 0.197749,0.082 0.08199,0.0796 0.08199,0.19534 0,0.11575 -0.08199,0.19775 -0.08199,0.082 -0.197749,0.082 -0.115755,0 -0.197748,-0.082 -0.08199,-0.082 -0.08199,-0.19775 0,-0.11576 0.08199,-0.19534 0.08199,-0.082 0.197748,-0.082 z m -0.614949,1.49276 v -0.20016 q 0.20016,-0.0241 0.335207,-0.0675 0.13746,-0.0434 0.311093,-0.13746 h 0.176044 v 1.93407 q 0,0.10129 0.02894,0.15193 0.02894,0.0506 0.07958,0.0748 0.05305,0.0217 0.190513,0.0217 h 0.113344 v 0.20258 h -1.234722 v -0.20258 h 0.09887 q 0.161575,0 0.217041,-0.0289 0.05547,-0.0289 0.07717,-0.082 0.02412,-0.053 0.02412,-0.24839 v -1.418 z" />
    </g>
    <path
       style="fill:none;stroke:#000000;stroke-width:0.4;stroke-linecap:butt;stroke-linejoin:miter;stroke-miterlimit:4;stroke-dasharray:none;stroke-dashoffset:0;stroke-opacity:1;marker-end:url(#marker1784)"
       d="m 46.887264,78.095896 h 3.794258 l -0.05365,-1.70121 h 3.389536 v 1.70723 h 3.237757 v -1.66808 h 2.833049 v 1.66025 h 4.14841 v -1.64458 h 4.498471"
       id="path72-19-9"
       sodipodi:nodetypes="cccccccccccc" />
  </g>
</svg>
